<svg id="Layer_1" xmlns="http://www.w3.org/2000/svg" viewBox="0 0 745.46 142.27"><defs><style>.cls-2{fill:#1c1819;fill-rule:evenodd}</style></defs><path d="M149.15 91.5s-1.27 14.32-17.27 28.74c0 0-15.1 15.72-37.46 15.2 0 0-30.01 1.57-44.23-21.18 0 0-4.74-7.58-7.35-17.39 0 0-4.19-17.39-2.35-28.25 0 0 1.57-15.43 7.19-25.37 0 0 7.46-13.08 20.13-17.92 0 0 11.77-5.1 24.71 3.66 0 0 5.76 5.1 7.33 9.67 0 0 5.09 9.94-.85 25.17 0 0-.24.32-.51-.22v-.02l-9.92-17.78h-.03L77.41 64.64s-.18.51-.59-.15L70.74 53.6s-.21-.34.17-.37l4.4-.05v-2.82H56.15v2.77h4.16s.11-.07.29.28l11.57 20.7s.2.42.1.66c0 0-3.69 8.36-3.89 14.28 0 0-.76 9.97 3.01 17.28 0 0 3.43 6.82 9.51 10.3 0 0 9.02 6.72 24.18 3.14 0 0 10.02-1.62 19.89-11.43 0 0 17.72-16.15 18.17-43.34 0 0 .92-21.64-14.11-38.64 0 0-9.94-13.6-28.57-19.28 0 0-25.23-8.7-47.13 3.27 0 0-18.5 9.22-26.49 25.11 0 0-4.64 8.89-5.65 14.65h2.66s3.33-10.3 5.29-13.54c0 0 7.7-14.85 25.45-24.03 0 0 18.16-10.75 44.84-2.84 0 0 14.26 4.12 23.66 19.32 0 0 9.22 13.37 9.22 35.93 0 0 1.58 24.78-11.57 40.08 0 0-15.5 21.18-38.63 8.92 0 0-17.76-9.61-8.14-36.09l.12-.39 10.27 18.4 11.13-18.82s.34-.32.51.02l6.18 11.06s.19.46-.2.49l-4.41.07v2.62h18.91v-2.67h-3.98l-11.7-20.89s-.22-.34.03-1c0 0 7.46-16.45 1.57-29.3 0 0-2.6-6.72-8.09-10.74 0 0-10.44-9.1-27.64-4.66 0 0-13.79 3.79-24.64 18.63 0 0-9.68 13.34-11.51 27.91 0 0-2.81 16.28 3.54 30.6 0 0 5.19 12.05 10.59 17.39 0 0 18.38 22.88 49.89 21.57 0 0 21.18.92 39.36-16.08 0 0 15.3-12.69 17.91-30.34l-2.61-.26zm-55.3-17.29l-5.69 9.62s-.38.38-.68-.15l-8.55-15.32c-.16-.27 0-.54 0-.54l5.69-9.62s.21-.63.68-.17l8.55 15.32s.26.43 0 .87z" fill="#1c1819"/><path class="cls-2" d="M306.08 86.41l26.07-.17-12.49-40.53-13.58 40.7zm-21 28.37v2.08h21.85v-1.89h-9.99l8.42-26.45 27.62.28 8.1 26.17h-10.23v1.62h33.05v-1.62h-9.41l-29.8-93.43-30.42 93.24h-9.18zM180.23 24.29h32.99l.02 1.94h-10.25l21.39 69.97 22.92-69.95-10.05.03v-2.01h22.04v1.97h-9.5l-30.49 93.12-29.42-93.3-9.65-.04v-1.73zm226.53.01h32.32v1.99h-10.47l.13 88.45h10.51v2h-32.64v-2h9.85V26.29h-9.7V24.3z"/><path class="cls-2" d="M457.54 24.31h23.78v1.98h-9.62l-30.1 36.18 36.68 52.27h7.89v2h-34.29v-2h11.51l-30.95-45.12 36.01-43.33h-10.91v-1.98zm71.92 0h32.31v1.98H551.3l.14 88.45h10.51v2H529.3v-2h9.86V26.29h-9.7v-1.98z"/><path class="cls-2" d="M580.24 24.31h23.77v1.98h-9.62L564.3 62.47l36.68 52.27h7.89v2h-34.29v-2h11.51l-30.96-45.12 36.02-43.33h-10.91v-1.98zm104.24-1.45c-21.98 0-39.81 21.33-39.81 47.62s17.83 47.62 39.81 47.62 39.81-21.32 39.81-47.62-17.82-47.62-39.81-47.62zm25.29 64.05c-.49 6.5-2.84 12.91-2.84 12.91-6.87 17.05-22.45 15.84-22.45 15.84s-15.58 1.21-22.44-15.84c0 0-2.35-6.41-2.84-12.91 0 0-.64-8.63-.66-16.52v.27-.54.27c.02-7.89.66-16.52.66-16.52.49-6.5 2.84-12.91 2.84-12.91 6.87-17.05 22.44-15.84 22.44-15.84s15.58-1.2 22.45 15.84c0 0 2.35 6.42 2.84 12.91 0 0 .64 8.63.66 16.52v-.27.54-.27c-.02 7.89-.66 16.52-.66 16.52z"/></svg>