<svg width="90" height="97" viewBox="0 0 90 97" fill="none" xmlns="http://www.w3.org/2000/svg"><path fill-rule="evenodd" clip-rule="evenodd" d="M50.09 50.629l-3.923 6.853s-.262.272-.465-.108l-5.895-10.92c-.107-.193 0-.387 0-.387l3.924-6.856s.148-.447.467-.119l5.892 10.919s.181.307 0 .618zm38.113 12.319S87.325 73.152 76.3 83.425c0 0-10.407 11.2-25.813 10.831 0 0-20.683 1.118-30.48-15.094 0 0-3.265-5.405-5.066-12.393 0 0-2.893-12.395-1.623-20.129 0 0 1.08-10.995 4.956-18.075 0 0 5.138-9.32 13.872-12.768 0 0 8.114-3.632 17.03 2.612 0 0 3.97 3.632 5.05 6.892 0 0 3.51 7.085-.586 17.94 0 0-.164.226-.352-.16l-.006-.01L46.45 30.4l-.02.003-7.669 13.414s-.122.366-.406-.104l-4.191-7.76s-.148-.244.115-.263l3.031-.033v-2.011H24.106v1.975h2.864s.074-.051.2.202l7.974 14.752s.136.3.068.473c0 0-2.545 5.958-2.681 10.175 0 0-.526 7.104 2.074 12.311 0 0 2.363 4.857 6.554 7.339 0 0 6.217 4.786 16.66 2.236 0 0 6.906-1.153 13.71-8.143 0 0 12.21-11.507 12.522-30.886 0 0 .636-15.424-9.727-27.539 0 0-6.852-9.689-19.691-13.741 0 0-17.389-6.197-32.483 2.327 0 0-12.751 6.568-18.253 17.89 0 0-3.195 6.337-3.897 10.438h1.83s2.295-7.337 3.645-9.645c0 0 5.307-10.586 17.538-17.123 0 0 12.514-7.662 30.898-2.026 0 0 9.83 2.936 16.308 13.768 0 0 6.353 9.529 6.353 25.602 0 0 1.087 17.659-7.972 28.56 0 0-10.68 15.096-26.624 6.36 0 0-12.24-6.85-5.61-25.718l.081-.276 7.08 13.11 7.67-13.412s.237-.228.352.019l4.259 7.88s.134.33-.136.347l-3.037.053v1.871h13.03V60.92h-2.742l-8.06-14.885s-.149-.245.019-.713c0 0 5.138-11.726 1.081-20.882 0 0-1.79-4.787-5.577-7.651 0 0-7.194-6.486-19.05-3.32 0 0-9.504 2.704-16.983 13.279 0 0-6.67 9.505-7.931 19.893 0 0-1.938 11.602 2.436 21.807 0 0 3.578 8.583 7.296 12.39 0 0 12.666 16.307 34.381 15.374 0 0 14.595.653 27.124-11.458 0 0 10.544-9.04 12.341-21.62l-1.797-.185z" fill="#000"/></svg>