<svg width="176" height="1114" viewBox="0 0 176 1114" xmlns="http://www.w3.org/2000/svg" xmlns:xlink="http://www.w3.org/1999/xlink"><svg width="32" height="32" fill="none" viewBox="0 0 32 32" xmlns="http://www.w3.org/2000/svg"><path fill="#F9F9F9" stroke="#111" d="M8.5 8.5h15v15h-15z"/></svg><svg width="32" height="32" fill="none" viewBox="0 0 32 32" y="32" xmlns="http://www.w3.org/2000/svg"><path fill="#111" stroke="#E4E4E4" d="M8.5 8.5h15v15h-15z"/><path fill-rule="evenodd" clip-rule="evenodd" d="M15.392 17.168L18.572 12h1.174l-4.204 6.832L13 16h1.344l1.048 1.168z" fill="#F9F9F9"/></svg><svg width="32" height="32" fill="none" viewBox="0 0 32 32" y="64" xmlns="http://www.w3.org/2000/svg"><path d="M20.234 14l-4.242 4.243L11.749 14h-1.414l5.657 5.657L21.648 14h-1.414z" fill="#111"/></svg><svg width="32" height="32" fill="none" viewBox="0 0 32 32" y="96" xmlns="http://www.w3.org/2000/svg"><path d="M18 12.1l-4.243 4.243L18 20.586V22l-5.657-5.657L18 10.687V12.1z" fill="#111"/></svg><svg width="32" height="32" fill="none" viewBox="0 0 32 32" y="128" xmlns="http://www.w3.org/2000/svg"><path d="M14 11.414l4.243 4.243L14 19.899v1.415l5.657-5.657L14 10v1.414z" fill="#111"/></svg><svg width="32" height="32" fill="none" viewBox="0 0 32 32" y="160" xmlns="http://www.w3.org/2000/svg"><path fill="#111" d="M8 23L22.85 8.15l.706.708-14.849 14.85z"/><path fill="#111" d="M8.707 8l14.85 14.85-.708.706L8 8.707z"/></svg><svg width="54" height="54" fill="none" viewBox="0 0 54 54" y="192" xmlns="http://www.w3.org/2000/svg"><path fill-rule="evenodd" clip-rule="evenodd" d="M43.875 16.875h-33.75v5.063h33.75v-5.063zM8.437 21.938v16.875h37.126V15.188H8.437v6.75zm35.438 15.187V25.312h-33.75v11.813h33.75zm-3.375-6.75h-6.75v3.375h6.75v-3.375z" fill="#111"/></svg><svg width="120" height="120" fill="none" viewBox="0 0 120 120" y="246" xmlns="http://www.w3.org/2000/svg"><circle cx="60" cy="60" r="33.75" stroke="#111" stroke-width="3"/><path d="M73.675 46L46 74m.325-28L74 74" stroke="#EE434E" stroke-width="6"/></svg><svg width="32" height="32" fill="none" viewBox="0 0 32 32" y="366" xmlns="http://www.w3.org/2000/svg"><path fill-rule="evenodd" clip-rule="evenodd" d="M6.528 16c.142.35.488.814 1.048 1.338.618.579 1.444 1.182 2.384 1.73C11.852 20.17 14.123 21 16 21c1.876 0 4.148-.83 6.04-1.932.94-.548 1.765-1.151 2.384-1.73.54-.506.881-.955 1.033-1.302-.225-.398-.631-.904-1.198-1.46a16.4 16.4 0 00-2.383-1.91C20.025 11.439 17.856 10.5 16 10.5c-1.86 0-4.123.942-6.02 2.17-.94.609-1.769 1.274-2.39 1.9-.565.57-.918 1.065-1.062 1.43zm2.908-4.17C11.401 10.558 13.86 9.5 16 9.5c2.144 0 4.512 1.062 6.43 2.333a17.395 17.395 0 012.53 2.029c.684.672 1.225 1.347 1.494 1.928l.077.167-.05.177c-.176.637-.706 1.31-1.374 1.934-.683.64-1.573 1.287-2.564 1.864C20.573 21.08 18.123 22 16 22c-2.124 0-4.574-.92-6.544-2.068-.99-.577-1.88-1.224-2.563-1.864-.668-.625-1.198-1.297-1.375-1.934L5.481 16l.037-.134c.175-.628.697-1.33 1.361-2 .68-.685 1.567-1.395 2.557-2.036z" fill="#111"/><path fill-rule="evenodd" clip-rule="evenodd" d="M16 18a2 2 0 100-4 2 2 0 000 4zm0 1a3 3 0 100-6 3 3 0 000 6z" fill="#111"/><path fill-rule="evenodd" clip-rule="evenodd" d="M16 21a5 5 0 100-10 5 5 0 000 10zm0 1a6 6 0 100-12 6 6 0 000 12z" fill="#111"/></svg><svg width="32" height="32" fill="none" viewBox="0 0 32 32" y="398" xmlns="http://www.w3.org/2000/svg"><path fill-rule="evenodd" clip-rule="evenodd" d="M25.645 26.354l-20-20 .707-.708 20 20-.707.708z" fill="#111"/><path fill-rule="evenodd" clip-rule="evenodd" d="M22.192 20.131c.118-.065.235-.132.35-.199.991-.577 1.881-1.224 2.565-1.864.667-.625 1.197-1.297 1.374-1.934l.05-.177-.078-.167c-.269-.581-.81-1.256-1.494-1.928a17.395 17.395 0 00-2.53-2.029c-1.917-1.271-4.285-2.333-6.43-2.333-1.162 0-2.418.312-3.638.801l.774.774c.991-.36 1.974-.575 2.864-.575 1.856 0 4.025.938 5.877 2.167a16.395 16.395 0 012.383 1.909c.566.556.973 1.062 1.197 1.46-.151.347-.492.796-1.033 1.302-.618.579-1.444 1.182-2.384 1.73-.191.112-.387.22-.585.326l.738.737zm-10.06-8.645c-.74.337-1.47.742-2.153 1.184-.94.609-1.768 1.274-2.39 1.9-.565.57-.917 1.065-1.062 1.43.143.35.488.814 1.048 1.338.619.579 1.445 1.182 2.384 1.73C11.851 20.17 14.123 21 16 21c1.39 0 2.998-.456 4.507-1.14l.752.753C19.568 21.423 17.681 22 16 22c-2.123 0-4.574-.92-6.543-2.068-.99-.577-1.88-1.224-2.564-1.864-.668-.625-1.197-1.297-1.374-1.934L5.48 16l.038-.134c.174-.628.696-1.33 1.36-2 .681-.685 1.568-1.395 2.558-2.036a18 18 0 011.944-1.095l.752.751z" fill="#111"/><path fill-rule="evenodd" clip-rule="evenodd" d="M13.879 13.879a3 3 0 104.243 4.243l-.708-.708a2 2 0 11-2.828-2.828l-.707-.707z" fill="#111"/><path fill-rule="evenodd" clip-rule="evenodd" d="M20.243 20.243l-.707-.707a5 5 0 01-7.071-7.071l-.708-.707a6 6 0 108.485 8.485z" fill="#111"/></svg><svg width="32" height="32" fill="none" viewBox="0 0 32 32" y="430" xmlns="http://www.w3.org/2000/svg"><path fill-rule="evenodd" clip-rule="evenodd" d="M14.26 25.417L16 27l1.74-1.57.047-.044C23.941 19.8 28 16.114 28 11.594 28 7.901 25.096 5 21.4 5c-1.742 0-3.426.676-4.695 1.791-.253.222-.488.46-.705.715a6.967 6.967 0 00-.704-.715C14.026 5.676 12.341 5 10.6 5 6.904 5 4 7.901 4 11.594c0 4.528 4.073 8.219 10.245 13.81l.015.013zm2.808-.728c3.11-2.824 5.61-5.095 7.345-7.215C26.137 15.367 27 13.53 27 11.594 27 8.454 24.545 6 21.4 6c-1.786 0-3.515.835-4.639 2.154L16 9.047l-.761-.893C14.115 6.835 12.386 6 10.6 6 7.455 6 5 8.454 5 11.594c0 1.937.863 3.773 2.586 5.878 1.735 2.12 4.235 4.387 7.345 7.204l.002.002 1.07.973 1.065-.962z" fill="#111"/></svg><svg width="32" height="32" fill="none" viewBox="0 0 32 32" y="462" xmlns="http://www.w3.org/2000/svg"><path d="M16 27l-1.74-1.583C8.08 19.818 4 16.126 4 11.594 4 7.901 6.904 5 10.6 5c2.088 0 4.092.971 5.4 2.506C17.308 5.97 19.312 5 21.4 5c3.696 0 6.6 2.901 6.6 6.594 0 4.532-4.08 8.225-10.26 13.835L16 27z" fill="#111"/></svg><svg width="32" height="32" fill="none" viewBox="0 0 32 32" y="494" xmlns="http://www.w3.org/2000/svg"><circle cx="16" cy="16" r="8.5" stroke="#EE434E"/><path fill-rule="evenodd" clip-rule="evenodd" d="M17 16l3-3-1-1-3 3-3-3-1 1 3 3-3 3 1 1 3-3 3 3 1-1-3-3z" fill="#EE434E"/></svg><svg width="32" height="32" fill="none" viewBox="0 0 32 32" y="526" xmlns="http://www.w3.org/2000/svg"><circle cx="16" cy="16" r="3" fill="#111"/><path fill="#111" d="M15.5 24.5v-3h1v3zm0-14v-3h1v3zm-8 5h3v1h-3zm14 0h3v1h-3z"/><circle cx="16" cy="16" r="5.5" stroke="#111"/></svg><svg width="32" height="32" fill="none" viewBox="0 0 32 32" y="558" xmlns="http://www.w3.org/2000/svg"><path fill="#111" d="M10.5 15.5h11v1h-11z"/></svg><svg width="32" height="32" viewBox="0 0 32 32" y="590" xmlns="http://www.w3.org/2000/svg"><g clip-path="url(#clip0_2_30)"><path fill-rule="evenodd" clip-rule="evenodd" d="M16 31c8.284 0 15-6.716 15-15 0-8.284-6.716-15-15-15C7.716 1 1 7.716 1 16c0 8.284 6.716 15 15 15zm0 1c8.837 0 16-7.163 16-16S24.837 0 16 0 0 7.163 0 16s7.163 16 16 16z"/><path d="M14 11.914l4.243 4.243L14 20.399v1.415l5.657-5.657L14 10.5v1.414z"/><path d="M15 11.5v9h-1v-9h1z"/></g></svg><svg width="32" height="32" fill="none" viewBox="0 0 32 32" y="622" xmlns="http://www.w3.org/2000/svg"><path fill="#111" d="M15.5 21.5v-11h1v11z"/><path fill="#111" d="M10.5 15.5h11v1h-11z"/></svg><svg width="36" height="36" fill="none" viewBox="0 0 36 36" y="654" xmlns="http://www.w3.org/2000/svg"><g clip-path="url(#arclip0_696_42285)"><circle cx="18" cy="18.052" r="17.552" stroke="#111"/><path fill-rule="evenodd" clip-rule="evenodd" d="M16.735 22.615L24.962 9H28L17.123 27 8 16.904h3.538l5.197 5.711z" fill="#111"/></g><defs><clipPath id="arclip0_696_42285"><path fill="#fff" d="M0 0h36v36H0z"/></clipPath></defs></svg><svg width="32" height="32" fill="none" viewBox="0 0 32 32" y="690" xmlns="http://www.w3.org/2000/svg"><circle cx="16" cy="16" r="7.5" fill="#F9F9F9" stroke="#111"/></svg><svg width="32" height="32" fill="none" viewBox="0 0 32 32" y="722" xmlns="http://www.w3.org/2000/svg"><circle cx="16" cy="16" r="7.5" fill="#F9F9F9" stroke="#111"/><circle cx="16" cy="16" r="5" fill="#111"/></svg><svg width="32" height="32" fill="none" viewBox="0 0 32 32" y="754" xmlns="http://www.w3.org/2000/svg"><circle cx="16" cy="16" r="8.5" stroke="#626262"/><path fill-rule="evenodd" clip-rule="evenodd" d="M17 16l3-3-1-1-3 3-3-3-1 1 3 3-3 3 1 1 3-3 3 3 1-1-3-3z" fill="#626262"/></svg><svg width="176" height="32" fill="none" viewBox="0 0 176 32" y="786" xmlns="http://www.w3.org/2000/svg"><path fill-rule="evenodd" clip-rule="evenodd" d="M19.282 12.983L16.364 4l-2.919 8.983H4l7.641 5.551-2.918 8.983 7.64-5.551 7.642 5.551-2.919-8.983 7.642-5.551h-9.446zm6.368 1h-7.094l-2.192-6.747-2.192 6.747H7.078l5.739 4.17-2.192 6.746 5.739-4.17 5.739 4.17-2.192-6.747 5.739-4.17zm29.632-1L52.364 4l-2.919 8.983H40l7.641 5.551-2.919 8.983 7.642-5.551 7.64 5.551-2.918-8.983 7.642-5.551h-9.446zm6.368 1h-7.094l-2.192-6.747-2.192 6.747h-7.094l5.739 4.17-2.192 6.746 5.739-4.17 5.739 4.17-2.192-6.747 5.739-4.17zm29.632-1L88.364 4l-2.919 8.983H76l7.641 5.551-2.919 8.983 7.642-5.551 7.64 5.551-2.918-8.983 7.641-5.551h-9.445zm6.368 1h-7.094l-2.192-6.747-2.192 6.747h-7.094l5.739 4.17-2.192 6.746 5.739-4.17 5.739 4.17-2.192-6.747 5.739-4.17zm29.632-1L124.364 4l-2.919 8.983H112l7.641 5.551-2.918 8.983 7.641-5.551 7.641 5.551-2.919-8.983 7.641-5.551h-9.445zm6.368 1h-7.094l-2.192-6.747-2.192 6.747h-7.094l5.739 4.17-2.192 6.746 5.739-4.17 5.739 4.17-2.192-6.747 5.739-4.17zm29.632-1L160.364 4l-2.919 8.983H148l7.641 5.551-2.918 8.983 7.641-5.551 7.641 5.551-2.919-8.983 7.641-5.551h-9.445zm6.368 1h-7.094l-2.192-6.747-2.192 6.747h-7.094l5.739 4.17-2.192 6.746 5.739-4.17 5.739 4.17-2.192-6.747 5.739-4.17z" fill="#111"/></svg><svg width="176" height="32" fill="none" viewBox="0 0 176 32" y="818" xmlns="http://www.w3.org/2000/svg"><path fill-rule="evenodd" clip-rule="evenodd" d="M16.364 4l2.918 8.983h9.445l-7.64 5.551 2.918 8.983-7.641-5.551-7.641 5.551 2.918-8.983L4 12.983h9.445L16.364 4zm36 0l2.918 8.983h9.446l-7.642 5.551 2.919 8.983-7.641-5.551-7.642 5.551 2.92-8.983L40 12.983h9.445L52.364 4zm36 0l2.918 8.983h9.445l-7.64 5.551 2.918 8.983-7.641-5.551-7.642 5.551 2.92-8.983L76 12.983h9.445L88.364 4zm36 0l2.918 8.983h9.445l-7.641 5.551 2.919 8.983-7.641-5.551-7.641 5.551 2.918-8.983L112 12.983h9.445L124.364 4zm36 0l2.918 8.983h9.445l-7.641 5.551 2.919 8.983-7.641-5.551-7.641 5.551 2.918-8.983L148 12.983h9.445L160.364 4z" fill="#111"/></svg><svg width="120" height="120" fill="none" viewBox="0 0 120 120" y="850" xmlns="http://www.w3.org/2000/svg"><path fill-rule="evenodd" clip-rule="evenodd" d="M87.477 43.269A32.094 32.094 0 0192 59.75C92 77.561 77.561 92 59.75 92S27.5 77.561 27.5 59.75 41.939 27.5 59.75 27.5c4.615 0 9.001.969 12.969 2.713l1.586-2.577A35.128 35.128 0 0059.75 24.5c-19.468 0-35.25 15.782-35.25 35.25S40.282 95 59.75 95 95 79.218 95 59.75a35.09 35.09 0 00-5.77-19.332l-1.753 2.85z" fill="#111"/><path fill-rule="evenodd" clip-rule="evenodd" d="M59.354 63.498L82.43 26h8.52L60.442 75.574 42 55.024h9.75l7.604 8.474z" fill="#47B962"/></svg><svg width="32" height="32" fill="none" viewBox="0 0 32 32" y="970" xmlns="http://www.w3.org/2000/svg"><path fill="#F9F9F9" d="M0 0h32v32H0z"/><path d="M19.657 11.754l4.242 4.243-4.242 4.242v1.415l5.657-5.657-5.657-5.657v1.414z" fill="#111"/><path fill="#111" d="M8 15.5h16v1H8z"/></svg><svg width="32" height="32" fill="none" viewBox="0 0 32 32" y="1002" xmlns="http://www.w3.org/2000/svg"><path fill="#F9F9F9" d="M0 0h32v32H0z"/><path d="M13.657 20.24l-4.243-4.243 4.243-4.243V10.34L8 15.997l5.657 5.657v-1.415z" fill="#111"/><path fill="#111" d="M25.313 16.493h-16v-1h16z"/></svg><svg width="24" height="24" fill="none" viewBox="0 0 24 24" y="1034" xmlns="http://www.w3.org/2000/svg"><circle cx="12" cy="12" r="6.75" fill="#EE434E"/><path fill-rule="evenodd" clip-rule="evenodd" d="M12.75 12L15 9.75 14.25 9 12 11.25 9.75 9 9 9.75 11.25 12 9 14.25l.75.75L12 12.75 14.25 15l.75-.75L12.75 12z" fill="#fff"/></svg><svg width="24" height="24" fill="none" viewBox="0 0 24 24" y="1058" xmlns="http://www.w3.org/2000/svg"><circle cx="12" cy="12" r="6.75" fill="#47B962"/><path fill-rule="evenodd" clip-rule="evenodd" d="M11.392 14.168L14.572 9h1.174l-4.204 6.832L9 13h1.344l1.048 1.168z" fill="#F9F9F9"/></svg><svg width="32" height="32" fill="none" viewBox="0 0 32 32" y="1082" xmlns="http://www.w3.org/2000/svg"><path fill-rule="evenodd" clip-rule="evenodd" d="M27.5 16.5c0 6.075-4.925 11-11 11s-11-4.925-11-11 4.925-11 11-11 11 4.925 11 11zm-21 0c0 5.523 4.477 10 10 10s10-4.477 10-10-4.477-10-10-10-10 4.477-10 10zM18 12l-1 7h-1l-1-7h3zm-.548 7.783h-2v2h2v-2z" fill="#E72F2F"/></svg><svg xmlns="http://www.w3.org/2000/svg" width="32" height="32" fill="none" viewBox="0 0 32 32" x="40"><path fill-rule="evenodd" clip-rule="evenodd" d="M27.5 16.5c0 6.075-4.925 11-11 11s-11-4.925-11-11 4.925-11 11-11 11 4.925 11 11zm-21 0c0 5.523 4.477 10 10 10s10-4.477 10-10-4.477-10-10-10-10 4.477-10 10zM18 12l-1 7h-1l-1-7h3zm-.548 7.783h-2v2h2v-2z" fill="#111"/></svg></svg>